<svg width="24" height="24" viewBox="0 0 24 24" fill="none" xmlns="http://www.w3.org/2000/svg">
<path d="M18.875 4.5H17V2.46875C17 2.21094 16.7891 2 16.5312 2H14.9688C14.7109 2 14.5 2.21094 14.5 2.46875V4.5H9.5V2.46875C9.5 2.21094 9.28906 2 9.03125 2H7.46875C7.21094 2 7 2.21094 7 2.46875V4.5H5.125C4.08984 4.5 3.25 5.33984 3.25 6.375V20.125C3.25 21.1602 4.08984 22 5.125 22H18.875C19.9102 22 20.75 21.1602 20.75 20.125V6.375C20.75 5.33984 19.9102 4.5 18.875 4.5ZM18.6406 20.125H5.35938C5.23047 20.125 5.125 20.0195 5.125 19.8906V8.25H18.875V19.8906C18.875 20.0195 18.7695 20.125 18.6406 20.125Z" fill="black"/>
</svg>
